<svg enable-background="new 0 0 1219.2 46.5" viewBox="0 0 1219.2 46.5" xmlns="http://www.w3.org/2000/svg"><g fill="#939393"><path d="m400.9 19.1c-.1 0-.1 0-.2.1-1.1.9-2.3 1.8-3.4 2.6-.8.5-1.6 1-2.4 1.5-.4.2-.7.3-1.1.5-1.1.4-1.7 1.7-1.3 2.8s1.7 1.7 2.8 1.3c.4-.2.8-.5 1.1-.9.2-.3.3-.5.5-.8.2-.4.5-.7.9-1 .3-.2.6-.5.9-.7.1-.1.2-.2.4-.3.2-.2.5-.2.7 0 0 0 .1.1.1.1.2-.2.3-.5.4-.7.1-.3.3-.5.4-.8l.3-.8h.1v.2c-.5 1.9-1.1 3.8-1.6 5.7-.1.3-.2.6-.3.9-.1.2-.2.3-.4.4-.6.3-1 .8-1.2 1.4-.6 1.2-.1 2.7 1.1 3.3s2.7.1 3.3-1.1c.1-.3.2-.5.2-.8.1-.6.1-1.2-.2-1.8-.1-.2-.1-.4-.1-.5.2-1.1.5-2.2.9-3.2.2-.6.6-1.1 1-1.5.2-.1.3-.3.5-.4.3-.2.7-.1.9.2.5.6.8 1.4.7 2.2 0 1.2.9 2.2 2.1 2.3 1 0 1.9-.6 2.2-1.6.2-.7 0-1.6-.5-2.1-.7-.8-1.4-1.5-2-2.3-.3-.4-.6-.8-.8-1.2-.7-1.2-.7-2.8 0-4 .3-.6.7-1.2 1.1-1.9s.6-1.1.9-1.6c.4-.7 1-1.3 1.6-1.8.4-.3 1-.5 1.6-.5.3 0 .5.1.8.2.6.4 1.3.7 1.9 1.1 1 .6 1.7 1.7 1.7 2.9v13.3c0 1.2-.6 2.4-1.7 3-1.9 1.1-3.7 2.1-5.6 3.2l-5.5 3.1c-.3.2-.7.4-1 .6-1 .5-2.2.5-3.2 0-1.1-.6-2.2-1.2-3.3-1.8l-5.8-3.3c-1-.6-2-1.1-3.1-1.7-1-.6-1.7-1.7-1.7-2.9 0-4.4 0-8.9 0-13.3 0-1.2.6-2.3 1.7-2.9 1.6-.9 3.3-1.9 4.9-2.8l6.2-3.5c.3-.2.7-.4 1-.6 1.1-.6 2.4-.6 3.4.1.5.3 1 .6 1.5.8.6.3 1 .9 1 1.6 0 .9-.2 1.7-.6 2.4-.5.9-1 1.9-1.6 2.8-1 1.6-2.6 2.8-4.5 3.1-1 .2-2.1.2-3.1 0-.4 0-.9-.1-1.3-.1-1 0-1.8.7-1.9 1.6s.4 1.8 1.2 2.1c.7.3 1.6.1 2.1-.5.2-.2.4-.3.7-.4.6-.1 1.3-.2 2-.3.2 0 .4-.1.5-.1l1.7-1 .2-.1z" opacity=".5"/><path d="m475.6 19 .3-.2c1-.5 2.1-.7 3.2-.6.7 0 1.3.2 1.9.5 1.1.6 1.9 1.7 2.1 2.9.1.6.2 1.1.2 1.7v6c0 .4-.1.9-.4 1.2-.4.5-1.1.7-1.7.5s-1.1-.8-1.1-1.4c0-.1 0-.3 0-.4 0-1.8 0-3.7 0-5.5 0-.3 0-.6-.1-.9-.2-.9-.9-1.5-1.8-1.5-.8 0-1.6.2-2.3.7-.2.1-.3.4-.3.6v6.6c0 .3 0 .6-.1.8-.2.7-.9 1.1-1.6 1.1-.8-.1-1.4-.7-1.5-1.4 0-.1 0-.2 0-.4 0-4.5 0-9 0-13.5 0-.2 0-.4.1-.6.2-.7.8-1.1 1.4-1.2.7 0 1.3.4 1.5 1.1.1.2.1.5.1.7v2.8c0 .1 0 .2.1.4z" opacity=".5"/><path d="m485.9 24.7c0-.7 0-1.5.2-2.2.3-1.7 1.4-3.2 3-3.8 1.8-.8 3.9-.8 5.6.2 1.5.7 2.4 2.1 2.6 3.7.1 1 .2 2 .1 3 0 .4-.1.8-.1 1.3-.3 1.9-1.7 3.5-3.6 4-1.5.5-3.1.4-4.6-.2-1.9-.8-3.2-2.6-3.2-4.7.1-.5.1-.9 0-1.3zm8.3 0c0-.5 0-.9-.1-1.3 0-.6-.3-1.1-.7-1.5-.5-.4-1.2-.7-1.8-.6-1.3-.1-2.4.9-2.4 2.2v.1 2.3c0 .9.5 1.7 1.4 2.1.4.2.9.3 1.3.2 1.2 0 2.2-.9 2.3-2-.1-.6-.1-1.1 0-1.5z" opacity=".5"/><path d="m528.7 25.8c-.1.8.2 1.5.8 2 .5.3 1 .5 1.6.5.8 0 1.6-.1 2.4-.4.2-.1.5-.2.7-.2.6-.2 1.3.1 1.7.7.3.6.2 1.4-.4 1.8-.2.2-.4.3-.7.4-.7.3-1.5.5-2.3.6s-1.7.1-2.5 0c-2.3-.3-4.1-2.2-4.4-4.5-.1-.9-.1-1.8-.1-2.7 0-.6.1-1.2.2-1.8.5-2.2 2.4-3.8 4.7-4 .8-.1 1.6 0 2.4.2 2 .5 3.5 2.1 3.7 4.1.1.6.1 1.3.1 1.9 0 .7-.6 1.3-1.3 1.3-.2 0-.3 0-.5 0h-6.1zm0-2.2h.4 4.1c.1 0 .3-.1.3-.2 0 0 0 0 0-.1.1-1-.5-2-1.5-2.2-.4-.1-.9-.1-1.3-.1-.7 0-1.4.5-1.7 1.1-.3.4-.4.9-.3 1.5z" opacity=".5"/><path d="m451.9 25.8h-3c-.3 0-.4 0-.4.4 0 .8.4 1.4 1.1 1.8.4.2.8.3 1.3.3.9 0 1.7-.1 2.5-.4.2-.1.4-.1.6-.2.6-.2 1.3.2 1.6.8s.1 1.3-.4 1.8c-.3.2-.6.4-1 .5-.8.2-1.5.4-2.3.5s-1.6 0-2.4-.1c-2.3-.5-4-2.5-4.1-4.9-.1-1-.1-2 0-2.9.1-2.4 1.9-4.5 4.3-4.9 1-.2 2-.2 2.9.1 1.9.5 3.3 2 3.6 3.9.2.7.2 1.5.1 2.3 0 .7-.6 1.3-1.3 1.3-.1 0-.3 0-.4 0zm-1.1-2.2h2.1c.3 0 .3-.1.4-.3.1-1-.6-2-1.6-2.3-.4-.1-.9-.1-1.3 0-.7.1-1.2.5-1.5 1.1-.2.4-.3.8-.3 1.2 0 .3 0 .3.3.3z" opacity=".5"/><path d="m461.8 25.8c-.1.4 0 .8.1 1.1.3.7 1 1.2 1.7 1.3.9.2 1.8.1 2.7-.2.3-.1.7-.2 1-.3.5-.1.9 0 1.3.3.6.5.7 1.4.1 2 0 0-.1.1-.1.1-.3.2-.6.4-1 .5-.8.3-1.6.4-2.4.5s-1.6 0-2.4-.1c-1.5-.3-2.7-1.2-3.5-2.6-.4-.8-.7-1.7-.7-2.6 0-.8 0-1.6 0-2.3 0-1.5.7-3 1.8-4 .8-.7 1.7-1.1 2.7-1.2 1.1-.2 2.2-.1 3.2.2 1.7.6 3 2.1 3.2 3.9.2.7.2 1.5.1 2.2s-.6 1.2-1.3 1.2c-.1 0-.3 0-.5 0zm0-2.2h.3 4.2c.1 0 .2-.1.2-.2.1-.8-.3-1.6-1-2.1-.6-.3-1.2-.4-1.9-.3-1.1.1-2 1.2-1.8 2.6 0-.1 0-.1 0 0z" opacity=".5"/><path d="m511 24.3v4.1c.1.7-.3 1.3-.9 1.6-1 .5-2 .9-3.1 1-.6.1-1.2.1-1.8.1-.7 0-1.4-.1-2-.3-1.5-.5-2.7-1.7-2.9-3.3-.1-.5-.2-1.1-.2-1.6 0-2 0-3.9 0-5.9 0-.2 0-.4.1-.6.2-.8 1-1.4 1.8-1.2.2 0 .4.1.5.2.4.3.7.7.8 1.2v.6 5.5c0 .3 0 .5.1.8.1.7.6 1.2 1.3 1.4.6.2 1.2.2 1.8 0 .3-.1.7-.2 1-.3.2-.1.4-.3.3-.5 0-.3 0-.5 0-.8 0-2.1 0-4.2 0-6.2 0-.2 0-.4 0-.6.1-.8.8-1.3 1.5-1.4.8 0 1.4.5 1.6 1.3 0 .2.1.4 0 .6.1 1.5.1 2.9.1 4.3z" opacity=".5"/><path d="m518.4 31.2c-1.2 0-2.4-.3-3.5-.8-.3-.2-.6-.4-.8-.6-.5-.4-.7-1-.5-1.5.2-.8.9-1.2 1.7-1.1.1 0 .1 0 .2.1.2.1.4.2.6.3 1 .6 2.2.8 3.3.6.2 0 .4-.1.6-.2.4-.2.6-.7.4-1.1-.1-.2-.2-.3-.4-.4-.3-.2-.7-.3-1-.4-.6-.2-1.3-.3-1.9-.5-.9-.2-1.7-.6-2.3-1.2-.7-.7-1.1-1.7-.9-2.7.1-1.5 1.2-2.8 2.6-3.2.9-.3 1.9-.4 2.9-.3.7.1 1.5.2 2.1.5.4.1.8.4 1.1.6.6.6.6 1.5.1 2.1 0 0 0 0-.1.1-.4.3-.9.4-1.3.3-.3-.1-.5-.2-.8-.3-.6-.3-1.3-.4-2-.4-.3 0-.5.1-.8.1-.2 0-.3.1-.4.2-.3.3-.4.7-.2 1.1.1.1.1.2.2.2.3.2.6.3 1 .4.7.1 1.3.3 2 .5.8.2 1.5.5 2.1 1 .7.5 1.1 1.3 1.2 2.1.3 2-1 3.8-2.9 4.3-.8.1-1.5.2-2.3.2z" opacity=".5"/><path d="m426 22c0-1.5 0-3 0-4.6 0-.2 0-.4.1-.6.2-.8.9-1.4 1.7-1.3s1.4.7 1.4 1.4v1.4c0 .3 0 .3.3.3h2.6c.6 0 1.1.4 1.4.9.3.7-.1 1.5-.9 1.8-.2.1-.3.1-.5.1-.7 0-1.5 0-2.2 0h-.5c-.1 0-.2.1-.2.2v.1 5c0 .5.3 1 .8 1.2.3.1.5.1.8.1.4 0 .8-.1 1.1-.2s.5-.1.8-.1c.6 0 1.1.4 1.3.9.2.6 0 1.2-.4 1.6-.2.2-.5.3-.8.4-.5.2-1.1.3-1.6.3-.6.1-1.1.1-1.7 0-1.6-.1-3-1.3-3.4-2.8-.2-.6-.2-1.2-.2-1.8.1-1.3.1-2.9.1-4.3z" opacity=".5"/><path d="m436.4 25.7c0-1.2 0-2.4 0-3.6 0-.6.1-1.3.4-1.9.5-1 1.4-1.7 2.5-1.9.7-.2 1.4-.2 2.1-.1.4 0 .8.1 1.1.1.3.1.7.2 1 .4.7.5.8 1.5.3 2.2-.2.2-.4.4-.6.5-.3.1-.7.1-1 0-.3 0-.5-.1-.8-.1s-.5 0-.8 0c-.4 0-.7.3-.8.7-.1.3-.1.6-.1.9v6.4.5c-.1.9-.9 1.5-1.7 1.4-.9 0-1.5-.7-1.5-1.6 0-.7 0-1.5 0-2.2z" opacity=".5"/><path d="m540.5 19.5c.1-.2.1-.4.2-.6 0-.1.1-.2.1-.3.1-.2.3-.3.5-.3.1 0 .2.1.3.3 0 .1 0 .1.1.2.1.4.1.8.2 1.2v.1c0 .1-.1.3-.3.3-.1 0-.3-.1-.3-.2 0-.1-.1-.3-.1-.4 0-.2-.1-.3-.1-.5l-.1.4c0 .1-.1.2-.1.4 0 .1-.2.2-.3.2-.2 0-.3-.1-.3-.2-.1-.2-.1-.3-.1-.5 0-.1-.1-.2-.1-.3 0 .2-.1.4-.1.6s-.1.4-.3.4c0 0 0 0-.1 0-.2 0-.3-.2-.2-.5s.1-.7.2-1.1c0-.1 0-.1 0-.2.1-.2.2-.3.4-.3s.4.1.4.3c.1.2.1.4.2.6-.2.2-.2.2-.1.4z" opacity=".5"/><path d="m538 18.9h-.4c-.1 0-.3-.1-.3-.3 0-.1.1-.3.2-.3h1.4c.1 0 .3.1.3.2 0 .1-.1.3-.2.3h-.1c-.3 0-.3 0-.3.3s0 .5 0 .7v.2c0 .1-.1.3-.3.3-.1 0-.3-.1-.3-.2 0-.3 0-.5 0-.8s0-.2 0-.4z" opacity=".5"/><path d="m727.4 14.9c.4-1.3 1.5-2.3 2.8-2.4 1.8-.3 3.5-.8 5.3-1.2 0 .1 0 .2-.1.3-2.8 3.3-2.4 8.2.9 10.9.1.1.2.2.3.3 1.5 1.1 3.1 2.1 4.8 2.8 1.4.6 2.7 1.3 4 2 1 .6 1.5 1.7 1.4 2.8 0 1.2-.8 2.3-2 2.5-1.4.4-2.9.4-4.3 0-1.5-.4-3-.9-4.6-1.4l-2.1 4.6 5 1.9c-1.4.3-2.7.6-4.1.8-1.3 0-2.4-.9-2.6-2.2-1-4.4-2-8.7-3-13.1-.6-2.5-1.2-5.1-1.8-7.6z" opacity=".5"/><path d="m758.4 31.3c-.2 1.5-1.4 2.7-2.9 2.8-1 .2-1.9.4-3 .7.9-1.4 1.4-3 1.3-4.7 0-2.9-1.5-5.6-4-7.1-1.3-.8-2.7-1.5-4.1-2.1-1-.5-2.1-1-3.2-1.5-.5-.2-.9-.6-1.3-.9-1-1-1.1-2.6-.1-3.6.3-.3.7-.6 1.2-.7 1.1-.3 2.2-.3 3.4-.1 1.4.3 2.9.7 4.2 1.2.2-.6.5-1.4.8-2.1s.5-1.5.8-2.3c-1.6-.9-3.4-1.5-5.3-1.8.2-.1.4-.2.7-.2 1-.2 2-.5 3-.7 1.5-.4 3 .4 3.4 1.8 0 .1.1.3.1.4 1.6 6.8 3.2 13.6 4.8 20.4l.1.6z" opacity=".5"/><path d="m804.9 27.7c.3-.1.6.1.7.4.8 1.9 1.6 3.8 2.3 5.8.1.2.3.4 0 .6-.4.2-.8.1-1-.3-.2-.5-.4-.9-.5-1.4 0-.3-.3-.4-.5-.4-.7 0-1.3 0-2 0-.2 0-.5.1-.5.3-.2.5-.3.9-.5 1.3-.1.4-.5.6-.9.4 0 0-.1 0-.1-.1-.1-.1-.1-.3-.1-.4.2-.7.5-1.4.8-2.1.5-1.3 1-2.5 1.5-3.8 0-.3.3-.6.7-.5h.1zm0 1.2h-.1c-.3.8-.6 1.7-.9 2.5 0 .1.1.2.2.2h1.9z" opacity=".5"/><path d="m790.6 34.6c-.3.1-.6-.1-.7-.4-.1-.4-.3-.8-.5-1.2-.1-.2-.3-.4-.5-.4-.7 0-1.3 0-2 0-.2 0-.5.1-.5.4-.2.5-.3.9-.5 1.3-.1.4-.6.5-.9.4h-.1c-.1-.1-.1-.3 0-.4.5-1.4 1-2.7 1.5-4.1.2-.6.5-1.3.7-1.9.1-.3.3-.5.6-.4.3-.1.6.1.8.4.8 2 1.6 4 2.5 6 .2.2.1.3-.4.3zm-2.6-5.7-1.1 2.8h2.1z" opacity=".5"/><path d="m777.2 15.4v3.6 4.6c.1.2-.1.5-.3.5-.1 0-.1 0-.2 0-.5 0-1.1 0-1.6 0-.2 0-.4-.1-.4-.3v-.1c0-3.8 0-7.5 0-11.3 0-.2.1-.4.3-.4h.2 3.2c.3 0 .5.2.5.4.7 2.3 1.3 4.7 2 7 0 .2.1.3.2.4.2-.7.4-1.3.6-2 .5-1.8 1-3.6 1.5-5.3 0-.3.3-.5.6-.5h2.8c.7 0 .7 0 .7.7v10.7h.1l.7-1.9c1.2-3 2.3-6 3.5-9 .1-.3.3-.5.6-.4h1.8c.3 0 .5.1.6.4.8 2 1.6 4 2.4 5.9l.7 1.8c.8-.1 1.6-.2 2.3-.2.1.1.2.2.3.3.2.4.3.8.5 1.1.5.6 1.2.9 2 .8.6 0 1.1-.1 1.6-.4.6-.4.8-1.1.4-1.7-.1-.2-.3-.4-.6-.5-.9-.3-1.8-.5-2.8-.8-.9-.2-1.8-.7-2.5-1.3-1.2-1.3-1.1-3.3.1-4.5.2-.2.5-.4.8-.5 1.7-.9 3.7-.9 5.5 0 1.1.5 1.8 1.6 1.8 2.8.1.2 0 .3-.2.4-.1 0-.1 0-.2 0-.6 0-1.2.1-1.8.1-.1 0-.3-.1-.4-.2-.1-.5-.4-1-.9-1.3-.6-.3-1.4-.3-2-.1-.3.1-.5.2-.7.3-.4.2-.5.7-.3 1.1 0 .1.1.1.2.2.2.2.5.4.8.5.8.3 1.7.4 2.5.7.8.2 1.5.6 2.2 1 1.5 1.2 1.8 3.5.6 5 0 0-.1.1-.1.1-.8.8-1.9 1.3-3 1.4-1.2.2-2.4 0-3.5-.4-.5-.3-1-.5-1.4-.9l.4 1.1c-.2 0-.4 0-.6 0-.6 0-1.1 0-1.7 0-.3 0-.5-.1-.6-.4-.2-.7-.5-1.3-.8-2-.1-.2-.3-.4-.5-.4-1.3 0-2.7 0-4 0-.2 0-.5.1-.5.4-.2.6-.5 1.3-.7 1.9-.1.3-.3.5-.6.4-1.3 0-2.6 0-4 0-.5 0-.5 0-.5-.6 0-2.6 0-5.2 0-7.8v-.5h-.1c-.2.6-.3 1.2-.5 1.8l-1.7 6.4c-.2.6-.2.6-.8.6s-1 0-1.5 0c-.3 0-.5-.1-.6-.4-.6-2.4-1.3-4.8-1.9-7.2zm17.3 3.9-1.5-4.1c-.2.3-.3.6-.4.9-.3.9-.7 1.9-1 2.8-.1.1-.2.4.1.4z" opacity=".5"/><path d="m845.3 25c-.4-.4-.8-.8-1.1-1.2s-.3-.5-1-.2c-1.4.7-3 .9-4.5.6-2.4-.2-4.4-2-4.9-4.4-.4-1.7-.2-3.5.6-5.1s2.4-2.7 4.2-2.8c1-.1 2-.1 2.9.2 1.4.3 2.6 1.4 3 2.7.2.6.2.6-.4.8s-1.1.2-1.6.3c-.2 0-.3-.1-.4-.2-.5-1.5-2.4-1.9-3.8-1.5-1 .3-1.8 1.2-2 2.3-.3 1.1-.3 2.2 0 3.2.4 1.7 2.1 2.8 3.9 2.4.1 0 .3-.1.4-.1.2-.1.4-.2.6-.2s.4-.2.1-.5c-.6-.6-1.2-1.3-1.7-1.9-.1-.1-.1-.2-.3-.4l7.4-1.2-1.5 7.2z" opacity=".5"/><path d="m825.3 16.7v.5 6.4c0 .6 0 .6-.6.6h-1.3c-.5 0-.5 0-.5-.6 0-3.3 0-6.7 0-10 0-.4 0-.8 0-1.1 0-.2.1-.4.3-.4h.1 1.8c.2 0 .4.2.5.3 1.4 2.2 2.8 4.3 4.2 6.5.2.3.4.6.7.9v-.4c0-2.2 0-4.5 0-6.7 0-.5 0-.5.5-.6s1 0 1.5 0c.2 0 .4.1.5.3v.2 5.3 5.8c0 .6 0 .6-.6.6s-1.1 0-1.6 0c-.3 0-.6-.1-.7-.4-1.5-2.3-2.9-4.6-4.4-6.8-.1-.1-.1-.2-.2-.3z" opacity=".5"/><path d="m818.1 18.1v5.5c0 .5 0 .5-.5.5s-1.1 0-1.6 0c-.2.1-.4-.1-.5-.3 0-.1 0-.1 0-.2 0-1.4 0-2.8 0-4.2 0-.5 0-.5-.5-.5-1.3 0-2.5 0-3.8 0-.2-.1-.4.1-.5.3v.2 4.2c0 .5 0 .5-.5.5s-1 0-1.6 0-.5-.1-.5-.5c0-2.4 0-4.7 0-7.1 0-1.3 0-2.7 0-4-.1-.2.1-.5.3-.5h.2 1.6c.2-.1.5.1.5.3v.2 3.6c0 .5 0 .6.6.6h3.9c.3 0 .4-.1.4-.4 0-1.2 0-2.5 0-3.8 0-.5 0-.6.5-.6s1 0 1.6 0c.2-.1.4.1.5.3v.2c-.1 2-.1 3.9-.1 5.7z" opacity=".5"/><path d="m769 13.9c-.5.1-1 .2-1.5.4-.4.2-.6.7-.4 1.1.1.2.2.3.4.4.6.2 1.1.5 1.7.6.9.3 1.8.5 2.7.9 1.4.5 2.2 1.9 2.1 3.4 0 1.4-.9 2.7-2.2 3.2-1.7.7-3.7.7-5.4-.1-1.3-.6-2.1-1.9-2.2-3.3 0-.2.1-.3.3-.4.6-.1 1.3-.2 1.9-.2.2.1.3.2.3.3.1.7.6 1.3 1.2 1.7.9.4 1.8.4 2.7 0 .5-.2.9-.8.9-1.3 0-.6-.4-1-1-1.1-.8-.2-1.7-.5-2.5-.7-.9-.2-1.8-.6-2.5-1.2-1.2-1.2-1.2-3.3 0-4.5.2-.2.3-.3.5-.4 1.6-1.1 5-1 6.4.2.7.6 1.1 1.5 1.2 2.4 0 .2 0 .3-.2.4h-.1c-.6 0-1.2.1-1.8.1-.2 0-.3-.1-.4-.2-.1-1-1-1.6-2-1.5 0-.1 0-.1-.1-.2z" opacity=".5"/><path d="m821.6 18.2v5.5c0 .5 0 .5-.5.5s-1 0-1.5 0c-.2 0-.4-.1-.5-.3 0-.1 0-.1 0-.2 0-3.8 0-7.5 0-11.2 0-.2.1-.4.3-.4h.1 1.6c.4 0 .5.1.5.5z" opacity=".5"/><path d="m776.6 29.3v4.8c0 .5-.1.6-.6.6-.2 0-.4-.1-.4-.3v-.1c0-2 0-4 0-6.1 0-.2.1-.4.3-.4h.1c1.1 0 1.1 0 1.5 1l1.5 4.2c0 .1.1.1.1.2.1-.1.1-.2.2-.3.5-1.5 1.1-3 1.6-4.5.1-.4.4-.6.8-.5 1.1 0 1-.1 1 1v5.3c.1.3-.1.6-.4.6-.1 0-.3 0-.4-.1s-.2-.3-.2-.5c0-1.4 0-2.8 0-4.2v-.4h-.1c-.3.7-.5 1.5-.8 2.2-.3.9-.7 1.8-1 2.7-.1.3-.3.4-.6.4s-.5-.1-.6-.4c-.5-1.5-1.1-3-1.6-4.5z" opacity=".5"/><path d="m822.7 29.5v.4 4.2c.1.3-.1.5-.3.6-.1 0-.3 0-.4-.1s-.2-.3-.2-.5c0-1.7 0-3.4 0-5.1 0-.3 0-.6 0-.9 0-.2.1-.3.3-.4h.1c.4-.1.9.1 1.1.6 1 1.4 2 2.8 2.9 4.2l.3.3c0-.2 0-.4 0-.5 0-1.4 0-2.8 0-4.1-.1-.2.1-.5.3-.5h.2c.2 0 .4.1.5.3v.2 5.8c0 .2-.1.4-.2.6-.3.2-.8.1-1-.2l-1.8-2.6z" opacity=".5"/><path d="m798.7 34c-.6.5-1.4.8-2.2.7-1.8 0-3.2-1.4-3.2-3.2 0 0 0 0 0-.1 0-.6 0-1.2.2-1.7.5-1.5 1.9-2.4 3.5-2.2.9 0 1.7.5 2.2 1.1.1.1.2.2.2.4.1.2.3.5 0 .7s-.7 0-.9-.3c0 0 0 0 0-.1-.1-.2-.3-.4-.5-.6-1-.7-2.5-.5-3.2.5-.1.1-.2.3-.2.5-.3.9-.3 1.9.1 2.8.5.9 1.5 1.4 2.5 1.1.4-.1.8-.3 1.2-.5.1-.1.2-.2.3-.3.2-.3.1-.6-.1-.8-.1-.1-.3-.1-.5-.1s-.4 0-.6 0c-.3 0-.5-.1-.5-.4s.1-.5.4-.5h.1 1.8c.2 0 .4.1.4.3v.2 2.7c0 .2 0 .4-.3.5-.2.1-.5-.1-.5-.3 0-.2-.1-.3-.2-.4z" opacity=".5"/><path d="m830.4 31.1c0-1 0-1.9 0-2.9-.1-.2.1-.4.3-.5h.2 4c.2-.1.4.1.5.3v.2c0 .2-.1.4-.3.4-.1 0-.1 0-.2 0h-3c-.5 0-.5 0-.5.5v1c0 .2.1.4.3.4h.1 2.8c.2 0 .4.1.5.3v.2c0 .2-.1.4-.3.4h-.1c-.9 0-1.9 0-2.8 0-.3 0-.5.1-.5.5v1.3c0 .2.1.4.3.4h.2 3.2c.5 0 .6.1.5.6 0 .2-.1.3-.3.3 0 0 0 0-.1 0h-4.4c-.2 0-.4-.1-.4-.3v-.1c0-.9 0-1.9 0-3z" opacity=".5"/><path d="m811 33.6h2.4 1.3c.2 0 .4.1.4.3v.2c0 .3 0 .5-.4.5h-2.5c-.6 0-1.2 0-1.8 0-.2 0-.4-.1-.6-.2-.1-.3 0-.6.1-.9.3-.4.6-.8.9-1.1l2.8-3.4c.1-.1.1-.2.2-.4h-.6c-.9 0-1.8 0-2.7 0-.2 0-.4-.2-.4-.5 0-.2.2-.4.4-.4h3.8c.2 0 .4 0 .6.1.1.3 0 .6-.1.9-.4.5-.8 1.1-1.3 1.6l-2.4 3c0 .1-.1.2-.1.3z" opacity=".5"/><path d="m818.8 31.2v2.9c0 .4-.2.5-.5.5-.2.1-.5-.1-.5-.3 0-.1 0-.1 0-.2 0-2 0-4 0-6 0-.4.2-.4.5-.4s.6 0 .6.4c-.1 1-.1 2-.1 3.1z" opacity=".5"/><path d="m220.8 10.2h25.5v26.1h-25.5zm1.9 4.1c1.1 5.3 2.1 10.6 3.2 16 .2.6.1 1.5.7 1.9 1.1.1 2.2.2 3.4.1.6 0 .8-.7.9-1.2.8-3.8 1.6-7.6 2.4-11.4.1-.3.2-.7.3-1 .9 4.1 1.7 8.2 2.6 12.2 0 .5.2.9.6 1.2 1.2.2 2.4.2 3.7 0 .3-.3.6-.8.6-1.2 1.1-5.5 2.2-11.1 3.4-16.6h-3.2c-.9 4.8-1.5 9.7-2.5 14.5-1.1-4.1-1.8-8.3-2.7-12.4-.2-.7-.1-1.7-.9-2.1-.9-.1-1.9-.1-2.8 0-.5.2-.8.6-.8 1.1-.9 4.1-1.7 8.2-2.6 12.2-.1.4-.2.7-.4 1.1-.9-4.8-1.7-9.6-2.4-14.5z" opacity=".5"/><path d="m271.5 10.2h25.5v26.1h-25.5zm5.7 4.1v17.9h3.5v-7h5.7c.7-.1 1.4.4 1.5 1.2.1 1.9.2 3.9.4 5.8h3.4c-.3-2.2.1-4.5-.5-6.6-.3-1.1-1.5-1.4-2.5-1.7.7-.4 1.6-.4 2.2-1.1.6-1 .9-2.2.8-3.4 0-1.4 0-2.9-.9-4-.8-.8-1.9-1.2-3.1-1.1z" opacity=".5"/><path d="m322.2 10.2h25.8v26.1h-25.8zm5.8 4.1v17.9h8.9c1.8 0 4-.4 5.1-2 1.3-2.1 1.1-4.6 1.3-6.9-.2-2.3 0-4.9-1.3-6.9-1-1.5-3-1.9-4.7-2-3.2-.1-6.2-.1-9.3-.1z" opacity=".5"/><path d="m252.7 14.1h12.3v3.2h-4.3v11.8h4.4v3.2c-4.1 0-8.2 0-12.3 0 0-1.1 0-2.1 0-3.2h4.4c0-3.9 0-7.9 0-11.8h-4.4c-.1-1.1-.1-2.1-.1-3.2z" opacity=".5"/><path d="m301.5 14.1h15.1v5.9h-3.3c0-.9 0-1.8 0-2.7h-5.9v4.1h4.8v3h-4.8v4.7h6c0-1 0-2.1 0-3.1h3.3v6.3c-5.1 0-10.2 0-15.3 0 0-1.1 0-2.1 0-3.2h2.4c0-3.9 0-7.9 0-11.9-.8 0-1.6 0-2.4 0 .1-1 .1-2 .1-3.1z" opacity=".5"/><path d="m280.8 17.2c2.3 0 4.5-.1 6.8 0 .9.6.7 1.9.7 2.8s-.1 2.2-1.2 2.3c-2.1.1-4.2 0-6.3 0z" opacity=".5"/><path d="m331.5 17.2h5.7c.9-.1 1.8.5 2.1 1.3.6 1.7.4 3.6.4 5.4.1 1.4-.1 2.9-.5 4.3-.5.8-1.4 1.2-2.4 1.1h-5.4z" opacity=".5"/><path d="m1109.6 6.3c-9.3 0-16.9 7.6-16.9 16.9s7.6 16.9 16.9 16.9 16.9-7.6 16.9-16.9-7.6-16.9-16.9-16.9zm0 24.5c-2.1 0-4-1.3-4.8-3.3-1.4-.4-2.4-1.6-2.4-3.1 0-1.8 3.2-7.1 3.2-7.1s.5.9 1.2 2.1c1.4-2.8 2.8-5.4 2.8-5.4s5.1 8.9 5.1 11.7-2.3 5.1-5.1 5.1z" opacity=".5"/><path d="m1105.4 28.6c-.7 0-1.3-.1-1.9-.4l.6-.9c.4.2.8.3 1.2.2 1.6-.2 2.8-1.5 2.8-3.1 0-.5-1-2.8-3.1-6.8l1-.5c1.5 2.8 3.3 6.3 3.3 7.3 0 2.2-1.7 4-3.9 4.2z" opacity=".5"/><path d="m1202.9 30.2v7.1c-.6 0-1 .1-1.4.1s-.9 0-1.4-.1c0-.5-.1-1-.1-1.5 0-3.6 0-7.2 0-10.8.1-.6 0-1.2-.3-1.7-.6.2-1.2.5-1.8.8-.3.2-.5.6-.6.9-.2.5-.2 1.1-.4 1.6-.9 2.5-3.2 4.1-5.9 4-2.7 0-4.9-1.9-5.5-4.5-.7-2.4-.2-5 1.4-6.9 2.2-2.6 7.4-2.5 9.3.8.2.4.5.9.8 1.3.1.1.2.2.3.2 1.8-.4 1.9-2.2 2.6-3.5 2 0 4-.1 6 0 1.6.1 3 .9 3.9 2.3.2.3.4.5.6.8 2.4-1.1 3.1-3.1 3.8-5.1h2.5c-.1.3-.2.6-.3.9-.5.9-.3 2 .6 2.6 1.3 1.3 2.1 3.1 2.1 4.9.1 3.1-2.3 5.8-5.4 6-.4 0-.9 0-1.3-.1l-1-.2v-2h1.8c1.2 0 2.3-.7 2.7-1.9.7-1.4.5-3.1-.5-4.4-.5-.6-.9-.6-1.5-.1s-1.5 1.2-2.2 1.7c-.5.3-.8.8-.9 1.3 0 .4-.2.8-.2 1.1-.3 2.7-2.6 4.6-5.3 4.5-.8.1-1.5 0-2.4-.1zm-8.8-8.1c-.2-.5-.5-.9-.8-1.3-1-1.1-2.6-1.1-3.7-.2-.1.1-.2.2-.3.3-1.2 1.8-1.2 4.1-.1 5.9.8 1.2 2.4 1.6 3.6.8.4-.2.7-.6.9-1 .3-.5.5-1.1.6-1.7 0-.1-.1-.2-.1-.3l-1.4-.2c0-.4 0-.7 0-1.1s0-.6.1-1zm13.6 2.5-1.4-.4c-.1-.4-.1-.9 0-1.4.2-.4.5-.8.9-1.1-1.1-1.2-2.7-1.7-4.2-1.2 0 .5-.1.9-.1 1.4v4.8c0 .4.3.8.7 1 .9.5 2.1.4 2.9-.4.7-.6 1.2-1.7 1.2-2.7z" opacity=".5"/><path d="m1169 17.3v-4.5l-1.2-.5v-2h4.1c0 .5.1 1 .1 1.4v13c0 .6 0 1.1.1 1.7.1.8.8 1.3 1.6 1.3.2 0 .4-.1.6-.2.6-.2 1-.7 1.2-1.3.1-.6.2-1.2.2-1.8 0-1.9 0-3.8 0-5.6 0-.1 0-.3.1-.4.8-.3 1.6-.3 2.4-.1l.3 1.9c1.8-.9 3.3-2.5 5.7-2.2.2 1.6 0 3.1.1 4.8h-2.3l-.5-1.8c-1.7.5-2.9 2-2.8 3.8-.1 1.3 0 2.7 0 4v1.8c-1.2.1-2.3.5-3.3-.5-2.1.9-4.2 1.3-5.7-1.1l-.9.8c-1 .9-2.5 1.4-3.8 1.1-1.9-.2-3.5-1.7-3.9-3.6-1.2-4.2 1.2-8.9 5.9-9.4.5-.3 1.2-.4 2-.6zm0 2.9c-.9-.3-1.8-.2-2.7.1-2.4 1-3.2 4.2-2.2 6.3.3.7 1.1 1.2 1.9 1.2 1.4 0 2.7-1 2.9-2.4.2-1.8.2-3.5.1-5.2z" opacity=".5"/><path d="m1147.4 25.8c-.3-1.3-.3-2.6 0-3.9.7-2.7 3.3-4.6 6.1-4.4 3 0 5.4 2.4 5.6 5.3.2 1.2.1 2.3-.2 3.5-.9 3.2-4.1 5-7.3 4.2-.6-.2-1.2-.4-1.7-.8-.6-.4-1-.8-1.7-1.3-.3.2-.7.5-1 .7-2.1 1.6-4.8 2-7.2 1.2-1.7-.5-3-1.9-3.4-3.6-.5-1.7-.4-3.6.2-5.2.7-1.9 2.4-3.3 4.4-3.6 1.6-.3 3.2-.3 4.8.1.1 1.4.1 2.9 0 4.3h-2.2c-.1-.4-.1-.8-.2-1.1-.1-.6-.6-1.1-1.2-1.1-.2 0-.4.1-.5.2-1.2.4-2.2 1.5-2.4 2.7-.1.8-.1 1.6 0 2.5.3 1.5 1.5 2.6 3 2.7 1.3.2 2.6-.2 3.6-1 .3-.5.8-.9 1.3-1.4zm8.9-1.7c-.1-.8-.3-1.6-.6-2.4-.3-1-1.3-1.8-2.4-1.7-1.1-.1-2.1.6-2.5 1.6-.7 1.5-.8 3.3-.1 4.8.5 1.4 2.1 2.1 3.4 1.6.7-.3 1.3-.8 1.6-1.6.2-.8.4-1.6.6-2.3z" opacity=".5"/><path d="m996.6 31.6c-1.9-.2-2.7-1-2.7-2.6 0-3.5 0-7.1 0-10.9l2.4.9c2.6-1.2 5.3-1.4 7.9.5 1.6-1.2 3.6-1.7 5.6-1.3 2.3.1 4.1 2 4 4.2v.2 7.9 1.1c-1.9-.1-2.7-.9-2.7-2.6 0-2.1 0-4.1 0-6.2-.1-2.5-2-3.7-4.2-2.8-1.1.4-1.8 1.5-1.7 2.7v7.6 1.7l-2.7-1.4c0-2.7 0-5.3 0-7.8.1-1.6-1.1-2.9-2.7-3-.6 0-1.1.1-1.6.4-1 .4-1.7 1.3-1.6 2.4v8c.1.2.1.6 0 1z" opacity=".5"/><path d="m976.6 19 2.1-.9c.1 2.2.1 4.5-.1 6.7-.2 1.6-2 2.8-4 2.9-1.5.1-2.9-.1-4.5-.2-.4.4-.5 1.1-.1 1.6.2.2.4.3.6.3.8.2 1.6.4 2.5.4 1.2.1 2.4.2 3.6.4 1.7.3 2.9 1.8 2.7 3.5 0 1.7-.9 2.8-2.8 3.2-2.1.7-4.4.7-6.6 0-1.9-.7-2.9-2.3-2.3-4 .4-.7.8-1.3 1.3-1.9-1.5-2.1-1.5-2.7 0-4.5-1.3-1.4-1.3-3.2-1-5 .2-.7.5-1.4 1-2 1.1-1.4 5.2-2.1 7.6-.5zm-6 3.9c0 2.2.9 3.2 2.8 3.2s2.9-1 2.9-3.2c0-.2 0-.4 0-.7.1-1.4-1-2.5-2.4-2.6-.1 0-.2 0-.3 0-2.1.1-3 1.1-3 3.3zm2.2 12.9c.8-.1 1.6-.2 2.4-.4.8-.1 1.5-.9 1.5-1.7.1-.9-.6-1.7-1.4-1.7-1.5-.1-3.1-.1-4.6 0-.8.1-1.3.8-1.3 1.5v.2c.2.7.6 1.3 1.2 1.7.7.2 1.4.4 2.2.4z" opacity=".5"/><path d="m1038.4 18.7v-6.6c1.9.1 2.8.9 2.8 2.6v15.6 1.5l-2.5-1.1c-1.7 1-3.7 1.2-5.5.7-2-.3-3.4-2.1-3.3-4.1 0-1.7 0-3.5 0-5.2s1.1-3.3 2.8-3.7c1.3-.4 2.8-.4 5.7.3zm0 6.2c0-.8 0-1.6 0-2.4 0-1.5-1.2-2.7-2.8-2.7h-.1c-1.4-.2-2.8.8-3 2.2v.2c-.1 1.8-.1 3.6 0 5.4.1 1.4 1.3 2.5 2.7 2.5h.3c1.5.1 2.8-1.1 2.8-2.5 0-.1 0-.1 0-.2.1-.9.1-1.7.1-2.5z" opacity=".5"/><path d="m936.4 31.9-2.3-1.1c-1.7 1-3.8 1.3-5.7.7-1.9-.4-3.2-2.1-3.1-4 0-1.7 0-3.3 0-5-.1-1.9 1.1-3.6 2.9-4 1.9-.5 3.9-.4 5.7.4v-7l2.6 1.4v18.6zm-2.6-6.9c0-.9 0-1.7 0-2.5 0-1.6-1.3-2.8-2.9-2.7-1.4-.2-2.7.8-2.9 2.2v.2c-.1 1.8-.1 3.7 0 5.5.1 1.4 1.2 2.5 2.6 2.4h.3c1.5.1 2.8-1 2.9-2.5v-.1c0-.9 0-1.7 0-2.5z" opacity=".5"/><path d="m1027.9 25v2.7c.1 1.6-1 3.1-2.5 3.5-2.3.8-4.7.8-7 0-1.6-.5-2.7-2-2.6-3.7 0-1.7-.1-3.4 0-5.1-.1-1.9 1.3-3.6 3.1-3.9 1.9-.5 4-.5 5.9 0 1.9.3 3.2 2.1 3.1 4-.1.7-.1 1.6 0 2.5zm-2.7 0c0-.9.1-1.7 0-2.5.1-1.3-1-2.5-2.3-2.5-.7-.1-1.5-.1-2.2 0-1.3.1-2.3 1.2-2.2 2.5v5.2c0 1.2.8 2.2 1.9 2.4.7.1 1.4.2 2.1.1 1.8-.2 2.6-1 2.7-2.9 0-.9 0-1.7 0-2.3z" opacity=".5"/><path d="m1043 24.8c0-.7 0-1.3 0-2 0-2.6 1-4 3.5-4.4 1.8-.3 3.6-.2 5.4.1 2.2.4 3.2 1.9 3.2 4.1v4.5c.2 2-1.1 3.8-3.1 4.2-2 .6-4.2.6-6.2-.1-1.8-.4-3-2.1-2.8-3.9 0-.8 0-1.6 0-2.5zm9.5.1c0-.9-.1-1.9-.1-2.8 0-1.1-.8-2-1.9-2.2-.8-.2-1.6-.2-2.4-.1-1.3 0-2.3 1-2.3 2.3v.1c-.1 1.8-.1 3.6 0 5.4-.1 1.2.9 2.3 2.1 2.4h.2c.8.1 1.5.1 2.3 0 1.1-.1 2-1.1 2-2.2 0-1 0-1.9.1-2.9z" opacity=".5"/><path d="m961.4 20.2-1.1 2.6c-1.1-2.4-2.8-3.5-5.2-3.3-1.1 0-2 .7-2.1 1.8.1.6.4 1.1.9 1.3 1.2.5 2.5.8 3.8 1.2.9.3 1.8.6 2.6 1.1 1.6 1.1 2 3.4.9 5-.1.2-.3.3-.4.5-2.3 2.2-8 1.8-10.1-.8l1-2.5c.9 2.1 3 3.4 5.3 3.3.5 0 1-.1 1.4-.3.8-.3 1.3-1.2 1-2-.1-.4-.4-.7-.8-.9-.7-.3-1.3-.6-2.1-.8-1.2-.4-2.5-.7-3.7-1.1-1.4-.5-2.3-1.8-2.2-3.2-.1-1.5.8-2.8 2.2-3.3 2.5-1.1 5.3-.9 7.7.5.2.2.5.5.9.9z" opacity=".5"/><path d="m992.1 31.6c-2.1-.3-2.7-1-2.7-2.8 0-2.1 0-4.2 0-6.3 0-1.5-1.2-2.8-2.7-2.9-.5 0-1 .1-1.4.4-1.1.4-1.8 1.4-1.7 2.6v7.8 1.5l-2.6-1.3v-12.5l2 .9v-.2c1.7-.3 3.3-.5 5-.5 2.7.1 4.2 1.8 4.2 4.5-.1 2.9-.1 5.8-.1 8.8z" opacity=".5"/><path d="m945.6 21.1c-.1.3-.2.6-.4.9-.6.5-.8 1-.2 1.5.4.4 1.1.5 1.5.1.1-.1.2-.2.2-.3.4-.7.4-1.4.2-2.1-.4-.7-1-1.2-1.8-1.4-2.1-.4-3.9 1.2-4.1 3.5-.2 3.8 2.7 7.1 6.6 7.4h1.3l.1.9c-5.4 1.6-11.1-2.8-10.8-8.1.2-4.1 5.4-6.8 8.9-4.7 1.5.9 2.2 2.7 1.7 4.4-.5 1.3-1.8 2.1-3.2 1.9-1-.1-1.9-.9-2-1.9-.1-.9.4-1.8 1.3-2 .2-.1.4-.1.7-.1z" opacity=".5"/><path d="m963.4 18 2.5 1.2v12.3c-1.2.2-2.3-.5-2.5-1.7 0-.2 0-.3 0-.5 0-3.3 0-6.7 0-10.1-.1-.2 0-.6 0-1.2z" opacity=".5"/><path d="m965.9 16c-2.2-.2-2.9-1.3-2.4-4.1l2.4 1.2z" opacity=".5"/><path d="m884.5 38.2v-29.9h29.9v29.9zm21.7-7.7c-.2 0-.4 0-.5 0-.3 0-.7 0-1 0-4.4-.3-7.9-3.7-8.2-8.1-.1-1.5.3-2.9 1.1-4.1 1-1.4 2.8-1.9 4.5-1.4 1.5.6 2.2 2.3 1.6 3.8 0 .1-.1.2-.1.2-.3.7-1.2 1-1.9.8-.5-.2-.8-.6-.8-1.1s.3-.9.7-1c.1 0 .2-.1.3-.2.1-.4.1-.8-.1-1.1-.5-.1-1 .1-1.5.4-.8.5-1.1 1.4-1 2.3.1 1 .8 1.9 1.8 2.2 1.9.7 4-.2 4.8-2 1-2.3 0-5-2.3-6.1-1.3-.6-2.7-.8-4.1-.6-2.9.3-5.3 2.2-6.2 4.9-1.2 3.6 0 7.5 2.9 9.9 1.8 1.4 3.9 2.2 6.1 2.5 1.1.2 2.3.2 3.4.1.2 0 .5-.1.5-.3 0-.4 0-.7 0-1.1z" opacity=".5"/><path d="m16.9 6.7 1.3.1c6.9.7 12.6 5.7 14.3 12.4.5 2 .6 4.1.3 6.2-.8 6.4-5.3 11.7-11.5 13.6-1.3.4-2.7.7-4.1.7-.1 0-.3 0-.4.1h-.8c-.1 0-.3 0-.4-.1-1.1 0-2.2-.2-3.2-.5-3.4-.8-6.5-2.8-8.7-5.5-2.1-2.5-3.4-5.6-3.7-8.9l-.1-1.2v-.8c0-.1 0-.3.1-.4 0-1.1.2-2.2.5-3.2 1.6-6.7 7.3-11.7 14.2-12.4l1.3-.1zm-5.4 24.3h2.5c.1 0 .3 0 .3-.2v-.1c0-1.3 0-2.6 0-4 0-.1 0-.2 0-.4h.4 3.4c2 0 3.7-1.6 3.9-3.6.4-2.2-1.1-4.4-3.4-4.7-.2 0-.5-.1-.7-.1-2 0-4.1 0-6.1 0h-.3z" opacity=".5"/><path d="m135.4 22.3h7.5c0-.1 0-.3 0-.4 0-1.8 0-3.6 0-5.4 0-.2.1-.3.2-.4h.2 2.6c.1 0 .3 0 .3.2v.1 15.3.2h-.2c-.9 0-1.8 0-2.7 0-.1 0-.3 0-.3-.2 0 0 0-.1 0-.2 0-2 0-4 0-5.9 0-.5 0-.5-.4-.5h-6.7c-.4 0-.4 0-.4.4v5.9.4h-3.3c0-.1 0-.2 0-.3 0-5.1 0-10.1 0-15.1 0-.2 0-.3.2-.4h.1 2.6c.1 0 .3 0 .3.2v.1 5.5z" opacity=".5"/><path d="m44.4 26.3v5.6h-3.3c0-.1 0-.2 0-.3 0-5 0-10.1 0-15.1 0-.2 0-.4.3-.4h7.6c2.6 0 4.7 2.1 4.8 4.7.2 1.6-.4 3.1-1.6 4.2-.9.8-2 1.2-3.1 1.2-1.4 0-2.8 0-4.2 0zm0-5.2v1.9c0 .2.1.3.3.3h3.2c.3 0 .6-.1.9-.1 1.1-.3 1.7-1.4 1.5-2.5-.2-1-1.2-1.8-2.2-1.7-1.1 0-2.3 0-3.4 0-.2 0-.3.1-.3.3z" opacity=".5"/><path d="m86.1 21.9v-.3c0-1.7 0-3.4 0-5.1 0-.2.1-.4.3-.4h2.4c.1 0 .2.1.3.2v.1 15.4.2h-3v-1.4l-.6.4c-1.8 1.6-4.6 1.6-6.3-.1-1-1-1.6-2.3-1.7-3.6-.2-1.4 0-2.7.5-4 .6-1.7 2.3-2.9 4.1-3 1.4-.2 2.8.4 3.7 1.5 0 .1.1.1.1.2zm0 4.3c0-.5 0-1 0-1.5 0-.4-.2-.8-.5-1.1l-.2-.2c-1.2-1-2.9-.8-4 .2-.5.5-.8 1.3-.9 2-.2 1.1.2 2.2.9 3 1.2 1.2 3.2 1.1 4.4-.1.1-.1.1-.2.2-.2 0-.1 0-.2 0-.3.1-.6.1-1.2.1-1.8z" opacity=".5"/><path d="m69.8 32.2c-2 .1-4-.9-5.1-2.6-.8-1.2-1.2-2.6-1-4.1.1-1.5.8-2.8 1.8-3.8.9-.8 2.1-1.4 3.3-1.5 1.2-.2 2.5 0 3.7.5 1.7.7 2.9 2.3 3.2 4.1.4 1.7 0 3.6-1 5-.9 1.3-2.3 2.1-3.9 2.2l-.5.1c0 .1-.5.1-.5.1zm-.2-9.4c-.9 0-1.7.5-2.1 1.2-.9 1.3-.9 3.1 0 4.4s2.7 1.5 4 .6c.2-.2.4-.4.6-.6.7-1 .9-2.3.5-3.4-.4-1.4-1.6-2.3-3-2.2z" opacity=".5"/><path d="m166.2 31.9h-2.8c-.1 0-.1-.1-.2-.2 0-.1 0-.2 0-.2 0-3.5 0-7.1 0-10.6 0-.4 0-.4.4-.4h2.5v1.5c.2-.2.4-.4.6-.5.8-.7 1.9-1.1 3-1.2.6 0 1.2 0 1.8.1 1.3.3 2.3 1.5 2.3 2.9v4.6 3.8c0 .1 0 .3-.2.3h-.1c-.9 0-1.7 0-2.7 0v-.4c0-2.1 0-4.3 0-6.4 0-.3 0-.5-.1-.8-.1-.9-.9-1.5-1.8-1.5-1-.1-2 .4-2.7 1.2-.1.1-.2.3-.2.5v7.1.2z" opacity=".5"/><path d="m95.1 20.5v.4 6.7c0 .5.1 1 .4 1.3.5.5 1.2.8 1.9.6.9 0 1.7-.4 2.3-1.1.2-.2.2-.4.2-.6 0-2.3 0-4.7 0-7v-.4h2.9v11.4h-2.8v-1.4l-.3.3c-1.4 1.3-3.3 1.8-5.2 1.3-1.3-.3-2.3-1.5-2.3-2.8 0-1.6 0-3.2 0-4.8 0-1.2 0-2.4 0-3.6 0-.2.1-.4.3-.3h2.3z" opacity=".5"/><path d="m152.4 20.5v.4 6.7c-.1 1 .7 1.9 1.7 2h.5c.9 0 1.8-.4 2.4-1.1.1-.1.2-.3.2-.5 0-2.4 0-4.7 0-7v-.4h2.9v11.4h-2.9v-1.4l-.3.3c-1.4 1.3-3.3 1.8-5.1 1.3-1.3-.3-2.3-1.5-2.3-2.8 0-1.1 0-2.3 0-3.5 0-1.6 0-3.2 0-4.9 0-.3.1-.4.4-.4.7-.1 1.6-.1 2.5-.1z" opacity=".5"/><path d="m113.8 28.3 1.9 1.8c-1 1.7-3.8 2.5-6.3 1.9-2.5-.7-4.3-3-4.3-5.6-.2-2.7 1.5-5.2 4.2-5.9 2.4-.7 5.1 0 6.4 1.8l-1.9 1.8c-.4-.5-.9-.9-1.6-1.1-1.6-.5-3.4.4-3.9 2-.1.2-.1.4-.1.6-.2 1 .1 2.1.7 2.9 1.1 1.3 3 1.5 4.3.5.1-.1.2-.2.4-.3z" opacity=".5"/><path d="m121.4 17.3v1.4 1.4c0 .3.1.4.4.4h1.9v2.6h-1.9c-.4 0-.4 0-.4.4v4.6c0 1.5.8 1.9 2.1 1.3l.2.8.3 1c.1.5.1.5-.3.7-.7.3-1.4.5-2.1.4-.4 0-.8-.1-1.2-.2-1-.2-1.8-1.1-1.9-2.2 0-.3-.1-.6-.1-1 0-1.8 0-3.6 0-5.5 0-.3-.1-.4-.4-.4-.5 0-1 0-1.5 0v-2.6h1.5c.4 0 .4 0 .4-.4 0-.9 0-1.8 0-2.7z" opacity=".5"/><path d="m182.7 29.3c.2.7.4 1.4.6 2.1 0 .1 0 .2-.1.3-.5.2-.9.4-1.4.5-.7.1-1.5.1-2.2-.1-1-.3-1.8-1.1-1.9-2.2 0-.3-.1-.6-.1-1 0-1.8 0-3.6 0-5.4 0-.6 0-.5-.5-.5h-1.4v-2.5h1c.8 0 .8 0 .8-.9 0-.7 0-1.3 0-1.9v-.3h2.9v.3 2.5c0 .1 0 .3.2.3h.1 2v2.5h-2c-.1 0-.2 0-.3.1v.1 5c-.1.6.4 1.2 1 1.3.3 0 .5 0 .7-.2z" opacity=".5"/><path d="m58.9 20.5v1.4c.6-.4 1.1-.8 1.7-1.2s1.3-.5 2-.5v2.9c-.4 0-.9 0-1.3 0-.8.1-1.5.5-2.1 1-.2.2-.3.4-.3.6v6.9.4s-.1 0-.2 0h-2.6c-.1 0-.2 0-.2-.1v-.1c0-.1 0-.1 0-.2 0-3.6 0-7.1 0-10.6 0-.4 0-.4.4-.4 0-.1 2.6-.1 2.6-.1z" opacity=".5"/><path d="m14.4 23.8v-3.4c1.1 0 2.3 0 3.4.1.8.1 1.4.8 1.3 1.7 0 .8-.6 1.5-1.4 1.6-.3 0-.6.1-1 .1z" opacity=".5"/><path d="m597.3 9.8-.5-1c-.4-1.1-1.4-1.9-2.6-2.1-.3-.1-.6-.2-.8-.4-.6-.4-1.3-.6-2-.4-.9.2-1.7.7-2.3 1.3-1.4 1.5-2.4 3.3-2.9 5.2-.1.3-.2.6-.3.8l-3.6 1.1c-.1.6-.2 1.1-.2 1.6-.3 2.5-.7 5.1-1 7.6s-1.5 9.5-1.5 9.5 2.8.5 3.8.7c4.3.8 8.8 1.6 13.2 2.5.2 0 .4.1.6.1l1.4-26.9zm-3.8-1.7c.3.9.5 1.9.4 2.8l-2.9.9c0-1.6 1-3.1 2.5-3.7zm-6.2 4.2c.4-1.4 1.1-2.7 2-3.8.6-.7 1.3-1.2 2.2-1.5s1.2.1 1.2.2c-1.9 1.1-2.5 3-3 5.1l-2.4.8c-.1-.3-.1-.6 0-.8zm5.7 8c-.6-.2-1.2-.3-1.8-.4-.5-.1-1.1 0-1.6.2-.6.2-.9.9-.7 1.5.1.2.2.3.3.5.3.3.6.6 1 .8.5.4 1 .8 1.5 1.2 2 1.8 1.6 5.5-.3 7-1 .8-2.2 1.2-3.5 1-1-.1-2-.4-2.8-.9-.4-.3-.8-.6-1.2-1l.8-2.8c1.2.7 2.2 1.6 3.5 1.2.6-.4.7-1.3.3-1.8 0-.1-.1-.1-.1-.2-.3-.3-.6-.6-.9-.9-3.4-2.4-2-6.5.1-8.1 1.7-1.2 3.8-1.6 5.9-1 .1 0 .3.1.4.2s.2.2.3.2zm1.9-9.7-.4-2.7c.9.1 1.6.9 1.8 2.2z" opacity=".5"/><path d="m600.7 11.4-1.5-1.4-1.2 26.5 5.3-1.2 3.5-.8-3.4-22.8z" opacity=".5"/><path d="m686 18.4c-1.2 2.7-2.3 5.5-3.2 8.4 0 0-.1-.1-.1-.1-.3-2.8-.6-5.7-.9-8.5-1.3-.2-2.6-.2-3.9 0 0 .2 0 .5.1.8.7 3.6 1.3 7.3 2 10.9.1.5 0 1-.3 1.4-.7 1.1-1.7 1.9-2.8 2.4-.3.2-.6.4-1 .5.3 1.1.6 2.2.9 3.2h.5c.1-.1.1-.1.2-.2 1.8-.7 3.4-1.9 4.5-3.5.9-1.2 1.7-2.4 2.4-3.8 1.9-3.8 3.6-7.5 5.4-11.2 0-.1.1-.2.1-.2z" opacity=".5"/><path d="m657.3 17.8c-1.2 0-2.3.5-3.2 1.3-.2.2-.4.5-.5.7-.1-.1-.2.1-.2 0 0-.5.1-.9.1-1.4h-3.2c-1.1 6-2.3 12-3.4 18h3.8c.3-2 .7-3.5 1-5.2h.2c.1 0 .1 0 .2.1 2.3.8 4.8.2 6.4-1.6 1.4-1.4 2.3-3.2 2.6-5.1.3-1.4.3-3-.2-4.4-.6-1.5-2-2.5-3.6-2.4zm-1.7 10c-.7 1-2.1 1.3-3.1.6-.1-.1-.2-.1-.2-.2.2-1.7.5-3.3 1-5 .3-.7.7-1.4 1.3-1.9.5-.4 1.1-.5 1.7-.3.5.3.9.8.8 1.4.2 2-.3 3.9-1.5 5.4z" opacity=".5"/><path d="m631.4 17.8c-1.2 0-2.4.4-3.3 1.2-.2.2-.4.4-.7.7.4-2.5 1-5.2 1.3-7.2h-3.7c-.5 2-3.6 18-3.5 19h3.6c.3-1 .6-3 .8-4.4.2-1.1.5-2.3.8-3.4.2-.9.7-1.7 1.4-2.3.4-.5 1.1-.6 1.7-.3.5.3.7.9.6 1.4 0 .2 0 .4-.1.5-.2 1-.3 2.1-.5 3.2-.3 1.7-.6 3.3-1 5.3h3.7c.1-1 .2-.5.2-.8.5-2.4.9-4.8 1.3-7.2.2-1 .2-2 .2-3 0-1.6-1.3-2.8-2.8-2.7z" opacity=".5"/><path d="m647.8 22.4c-.1-2.4-1.8-4.3-4.2-4.6-1.8-.3-3.7.2-5.2 1.4-2.5 2-3.7 5.2-3.1 8.3.3 2 1.8 3.6 3.8 3.9 1.9.4 3.8-.1 5.3-1.2 2.2-1.7 3.4-4.4 3.3-7.1.1-.2.1-.4.1-.7zm-4.8 4.5c-.3.6-.7 1.1-1.1 1.5-.7.6-1.7.5-2.2-.2-.1-.2-.3-.4-.3-.6-.1-.3-.2-.6-.2-.9-.1-1.5.2-3.1 1-4.4.3-.5.7-.9 1.1-1.2.7-.5 1.7-.4 2.2.3.1.2.2.4.3.6.1.4.2.7.2 1.1-.1 1.2-.4 2.5-1 3.8z" opacity=".5"/><path d="m677.1 17.8c-.9 0-1.7 0-2.5 0 0-.9.4-1.8 1.1-2.4s1.5-.4 2.4-.3l.7-2.9c-.2-.1-.4-.1-.6-.2-2.9-.5-5.4.4-6.6 3.2-.2.6-.4 1.2-.6 1.8-.1.3-.2.6-.2.9l-1.7.1-.5 2.8c.6 0 1.1.1 1.7.1-.7 3.5-1.3 6.4-2 10.4h3.8c.7-4 1.3-7 2-11h2.5c.1-.9.3-1.5.5-2.5z" opacity=".5"/><path d="m617.2 20.8c.4-.1.8-.2 1.2-.2.7.1 1.3.2 2.1.3l.8-2.6c-1.4-.6-2.9-.8-4.4-.5-1.3.1-2.5.8-3.4 1.7-1.4 1.5-1.3 3.8.2 5.2.1.1.1.1.2.2.4.4 1 .6 1.4 1 .3.2.6.5.9.7.4.4.4 1.2 0 1.6-.2.2-.4.3-.6.3-.5.1-.9.1-1.4.1-.8-.1-1.5-.4-2.4-.6l-.9 2.5c.1.1.2.2.3.2.2.1.4.2.7.3 1.5.5 3.2.6 4.8.2.8-.2 1.5-.6 2.1-1 1.7-1.3 2.1-3.7.8-5.4-.2-.3-.5-.6-.8-.8-.4-.3-.9-.6-1.3-.9-.3-.2-.6-.4-.9-.6-.4-.4-.5-1-.1-1.4.3-.1.5-.2.7-.3z" opacity=".5"/><path d="m661.3 31.4h3.8c.8-4 1.7-9 2.5-13h-3.8c-.9 4-1.8 9-2.5 13z" opacity=".5"/><path d="m666.5 12.4c-1.2 0-2.2 1-2.2 2.1v.1c-.1 1 .6 1.8 1.6 1.9h.2c1.2 0 2.2-1 2.2-2.2 0 0 0 0 0-.1.1-1-.7-1.8-1.8-1.8z" opacity=".5"/></g></svg>